<?xml version="1.0" encoding="iso-8859-1"?>
<!-- Generator: Adobe Illustrator 19.0.0, SVG Export Plug-In . SVG Version: 6.00 Build 0)  -->
<svg version="1.1" id="Layer_1" xmlns="http://www.w3.org/2000/svg" xmlns:xlink="http://www.w3.org/1999/xlink" x="0px" y="0px"
	 viewBox="0 0 511.999 511.999" style="enable-background:new 0 0 511.999 511.999;" xml:space="preserve">
<g>
	<rect x="10.199" y="430.986" style="fill:#FF9839;" width="491.6" height="68.763"/>
	<polygon style="fill:#FF9839;" points="501.8,151.83 10.2,151.83 256,12.254 	"/>
</g>
<g>
	<rect x="171.988" y="151.835" style="fill:#FFD890;" width="56.007" height="279.151"/>
	<rect x="59.976" y="151.835" style="fill:#FFD890;" width="56.007" height="279.151"/>
	<rect x="396.013" y="151.835" style="fill:#FFD890;" width="56.007" height="279.151"/>
	<rect x="284.006" y="151.835" style="fill:#FFD890;" width="56.007" height="279.151"/>
</g>
<circle style="fill:#947C7C;" cx="255.999" cy="91.283" r="24.631"/>
<g>
	<path style="fill:#4C1D1D;" d="M501.8,420.786h-39.577V162.029H501.8c4.63,0,8.678-3.119,9.861-7.594
		c1.182-4.476-0.799-9.187-4.824-11.474L261.036,3.383c-3.124-1.774-6.949-1.774-10.073,0L5.164,142.961
		c-4.026,2.287-6.007,6.997-4.824,11.474c1.182,4.476,5.231,7.594,9.861,7.594h39.577v258.757H10.2
		c-5.633,0-10.199,4.566-10.199,10.199v68.762c0,5.633,4.566,10.199,10.199,10.199h491.6c5.633,0,10.199-4.566,10.199-10.199
		v-68.762C511.999,425.352,507.433,420.786,501.8,420.786z M441.824,420.786h-35.608V162.029h35.608V420.786z M350.209,420.786
		V162.029h35.609v258.757H350.209z M238.195,420.786V162.029h35.608v258.757H238.195z M126.182,420.786V162.029h35.609v258.757
		H126.182z M182.188,162.029h35.608v258.757h-35.608V162.029z M294.202,162.029h35.608v258.757h-35.608V162.029z M48.816,141.631
		L256,23.983l207.184,117.649H48.816V141.631z M70.175,162.029h35.608v258.757H70.175V162.029z M491.6,441.184v48.363H20.399
		v-48.363H491.6z"/>
	<path style="fill:#4C1D1D;" d="M256,126.109c19.206,0,34.83-15.625,34.83-34.83s-15.625-34.83-34.83-34.83
		s-34.83,15.625-34.83,34.83S236.794,126.109,256,126.109z M256,76.846c7.958,0,14.432,6.474,14.432,14.432
		s-6.474,14.432-14.432,14.432c-7.957,0-14.432-6.474-14.432-14.432S248.041,76.846,256,76.846z"/>
	<path style="fill:#4C1D1D;" d="M189.29,455.68H47.659c-5.633,0-10.199,4.566-10.199,10.199c0,5.633,4.566,10.199,10.199,10.199
		h141.63c5.633,0,10.199-4.566,10.199-10.199C199.488,460.247,194.923,455.68,189.29,455.68z"/>
	<path style="fill:#4C1D1D;" d="M234.448,455.68h-11.289c-5.633,0-10.199,4.566-10.199,10.199c0,5.633,4.566,10.199,10.199,10.199
		h11.289c5.633,0,10.199-4.566,10.199-10.199C244.647,460.247,240.081,455.68,234.448,455.68z"/>
</g>
<g>
</g>
<g>
</g>
<g>
</g>
<g>
</g>
<g>
</g>
<g>
</g>
<g>
</g>
<g>
</g>
<g>
</g>
<g>
</g>
<g>
</g>
<g>
</g>
<g>
</g>
<g>
</g>
<g>
</g>
</svg>
