<?xml version="1.0" encoding="iso-8859-1"?>
<!-- Generator: Adobe Illustrator 19.0.0, SVG Export Plug-In . SVG Version: 6.00 Build 0)  -->
<svg version="1.1" id="Layer_1" xmlns="http://www.w3.org/2000/svg" xmlns:xlink="http://www.w3.org/1999/xlink" x="0px" y="0px"
	 viewBox="0 0 511.998 511.998" style="enable-background:new 0 0 511.998 511.998;" xml:space="preserve">
<path style="fill:#333E48;" d="M27.383,438.901v65.05h457.231v-65.05h-0.002c0-34.244-27.761-62.005-62.006-62.005H89.39
	C55.145,376.896,27.383,404.657,27.383,438.901z"/>
<path style="opacity:0.2;enable-background:new    ;" d="M121.519,509.455c-4.445,0-8.047-3.603-8.047-8.047v-33.44
	c0-4.444,3.602-8.047,8.047-8.047s8.047,3.603,8.047,8.047v33.44C129.566,505.852,125.964,509.455,121.519,509.455z"/>
<path style="opacity:0.2;enable-background:new    ;" d="M390.478,509.455c-4.445,0-8.047-3.603-8.047-8.047v-33.44
	c0-4.444,3.602-8.047,8.047-8.047s8.047,3.603,8.047,8.047v33.44C398.525,505.852,394.923,509.455,390.478,509.455z"/>
<path style="fill:#6CC04A;" d="M179.591,376.896V248.04h152.816v128.856c0,42.199-34.209,76.408-76.408,76.408
	S179.591,419.095,179.591,376.896z"/>
<path style="opacity:0.2;enable-background:new    ;" d="M179.591,376.896V248.04h152.816v128.856
	c0,42.199-34.209,76.408-76.408,76.408S179.591,419.095,179.591,376.896z"/>
<g>
	<circle style="fill:#A4D78A;" cx="109.979" cy="167.148" r="43.295"/>
	<circle style="fill:#A4D78A;" cx="402.022" cy="167.148" r="43.295"/>
</g>
<path style="fill:#6CC04A;" d="M109.98,247.397c0,35.517,28.791,64.308,64.308,64.308H337.71c35.517,0,64.309-28.791,64.309-64.308
	h-0.002V62.43c0-23.928-19.578-43.506-43.506-43.506H153.486c-23.928,0-43.505,19.578-43.505,43.506v184.967H109.98z"/>
<path style="opacity:0.3;enable-background:new    ;" d="M255.998,189.489c-9.611,0-17.403-7.792-17.403-17.403v-12.622
	c0-9.612,7.792-17.403,17.403-17.403s17.403,7.791,17.403,17.403v12.623C273.401,181.697,265.609,189.489,255.998,189.489z"/>
<g>
	<path style="fill:#FFFFFF;" d="M201.436,143.292h-51.14c-1.196,3.079-1.863,6.423-1.863,9.925
		c0,15.149,12.283,27.431,27.433,27.431s27.432-12.281,27.432-27.431C203.298,149.715,202.632,146.371,201.436,143.292z"/>
	<path style="fill:#FFFFFF;" d="M361.702,143.292h-51.14c-1.195,3.079-1.862,6.423-1.862,9.925
		c0,15.149,12.283,27.431,27.433,27.431c15.149,0,27.432-12.281,27.432-27.431C363.564,149.715,362.898,146.371,361.702,143.292z"/>
</g>
<g style="opacity:0.3;">
	<path d="M332.744,226.866c0-8.973-7.342-16.315-16.315-16.315H195.564c-8.972,0-16.315,7.341-16.315,16.315v22.3
		c0,8.973,7.342,16.315,16.315,16.315H316.43c8.972,0,16.315-7.341,16.315-16.315L332.744,226.866L332.744,226.866z"/>
</g>
<g style="opacity:0.2;">
	<path d="M367.915,107.425H266.402c-4.445,0-8.047-3.603-8.047-8.047s3.602-8.047,8.047-8.047h101.513
		c4.445,0,8.047,3.603,8.047,8.047S372.361,107.425,367.915,107.425z"/>
	<path d="M285.979,125.553c-4.445,0-8.047-3.603-8.047-8.047V81.251c0-4.444,3.602-8.047,8.047-8.047
		c4.445,0,8.047,3.603,8.047,8.047v36.255C294.027,121.95,290.424,125.553,285.979,125.553z"/>
	<path d="M324.539,125.553c-4.445,0-8.047-3.603-8.047-8.047V81.251c0-4.444,3.602-8.047,8.047-8.047
		c4.445,0,8.047,3.603,8.047,8.047v36.255C332.586,121.95,328.984,125.553,324.539,125.553z"/>
</g>
<path style="fill:#FFFFFF;" d="M179.249,234.753v-7.886c0-8.973,7.342-16.315,16.315-16.315H316.43
	c8.972,0,16.315,7.341,16.315,16.315v7.886H179.249z"/>
<rect x="247.953" y="210.55" style="opacity:0.1;enable-background:new    ;" width="16.095" height="24.202"/>
<rect x="204.262" y="210.55" style="opacity:0.1;enable-background:new    ;" width="16.095" height="24.202"/>
<rect x="291.634" y="210.55" style="opacity:0.1;enable-background:new    ;" width="16.095" height="24.202"/>
<path style="fill:#333E48;" d="M358.511,8.047H153.486c-29.985,0-54.382,24.395-54.382,54.383c0,0,65.578,0,68.387,0
	s3.932-2.406,3.932-2.406l7.277-14.554c3.012-6.022,7.937-6.022,10.949,0l7.274,14.548c0,0,1.021,2.412,4.829,2.412
	c3.398,0,211.138,0,211.138,0C412.892,32.443,388.497,8.047,358.511,8.047z"/>
<path style="fill:#1E252B;" d="M492.66,438.901c0-38.627-31.425-70.053-70.054-70.053h-82.152v-16.5H362.5v8.959h16.095v-34.012
	H362.5v8.959h-22.046v-16.568c18.297-0.678,35.402-8.108,48.418-21.126c13.667-13.667,21.192-31.836,21.191-51.163V217.86
	c24.501-3.873,43.297-25.133,43.297-50.706s-18.795-46.832-43.297-50.707V70.477h2.829c4.444,0,8.047-3.603,8.047-8.047
	C420.94,28.006,392.934,0,358.511,0H153.486c-34.423,0-62.429,28.006-62.429,62.43c0,4.444,3.603,8.047,8.047,8.047h2.829v45.971
	c-24.501,3.875-43.296,25.134-43.296,50.707s18.794,46.832,43.296,50.706v29.538c0,38.976,30.983,70.836,69.61,72.285v16.57h-22.045
	v-8.959h-16.095v34.012h16.095v-8.959h22.045v16.5H89.39c-38.628,0-70.054,31.425-70.054,70.053v65.05
	c0,4.444,3.602,8.047,8.047,8.047h457.231c2.134,0,4.181-0.848,5.691-2.357c1.509-1.51,2.356-3.556,2.356-5.69L492.66,438.901z
	 M410.063,132.844c15.57,3.651,27.202,17.643,27.202,34.31s-11.632,30.658-27.202,34.31V132.844z M101.933,201.463
	c-15.57-3.651-27.201-17.643-27.201-34.31s11.631-30.658,27.201-34.31V201.463z M153.485,16.095H358.51
	c22.805,0,41.815,16.561,45.635,38.288H203.103l-6.255-12.512c-2.849-5.696-7.468-8.964-12.673-8.964
	c-5.204,0-9.822,3.267-12.671,8.965l-6.257,12.512h-57.396C111.672,32.656,130.681,16.095,153.485,16.095z M118.027,247.397V70.477
	h49.464c5.775,0,9.599-3.692,11.159-6.913l5.524-11.048l5.489,10.979c1.553,3.296,5.567,6.983,12.089,6.983h192.215l0.002,176.921
	c0,31.022-25.239,56.26-56.262,56.26H174.288C143.266,303.658,118.027,278.419,118.027,247.397z M324.359,319.753v57.144
	c0,37.694-30.667,68.36-68.36,68.36s-68.36-30.667-68.36-68.36v-57.144H324.359z M476.567,495.905H35.431v-57.004
	c0-29.753,24.206-53.958,53.959-53.958h82.547c4.067,42.807,40.209,76.408,84.062,76.408s79.996-33.6,84.062-76.408h82.545
	c29.751,0,53.959,24.205,53.961,53.958v57.004H476.567z M211.345,153.217c0-4.405-0.81-8.723-2.408-12.838
	c-1.202-3.096-4.18-5.134-7.501-5.134h-51.14c-3.32,0-6.298,2.038-7.5,5.132c-1.599,4.115-2.41,8.434-2.41,12.84
	c0,19.563,15.917,35.478,35.48,35.478C195.429,188.696,211.345,172.78,211.345,153.217z M156.48,153.217
	c0-0.629,0.03-1.255,0.091-1.878h9.553c-0.117,0.608-0.183,1.236-0.183,1.879c0,5.479,4.444,9.922,9.924,9.922
	c5.481,0,9.926-4.443,9.926-9.922c0-0.644-0.065-1.27-0.183-1.879h9.552c0.061,0.622,0.091,1.249,0.091,1.878
	c0,10.688-8.696,19.383-19.384,19.383C165.177,172.6,156.48,163.906,156.48,153.217z M195.564,273.528H316.43
	c13.434,0,24.362-10.929,24.362-24.362v-22.3c0-13.434-10.929-24.362-24.362-24.362H195.564c-13.434,0-24.362,10.928-24.362,24.362
	v22.3C171.202,262.599,182.131,273.528,195.564,273.528z M187.297,226.866c0-4.559,3.708-8.267,8.267-8.267H316.43
	c4.559,0,8.267,3.709,8.267,8.267v22.3c0,4.558-3.708,8.267-8.267,8.267H195.564c-4.559,0-8.267-3.709-8.267-8.267V226.866z
	 M255.998,197.536c14.032,0,25.45-11.416,25.45-25.45v-12.622c0-14.033-11.418-25.45-25.45-25.45
	c-14.032,0-25.45,11.416-25.45,25.45v12.623C230.549,186.119,241.966,197.536,255.998,197.536z M246.644,159.464
	c0-5.159,4.196-9.355,9.355-9.355s9.355,4.196,9.355,9.355v12.622c0,5.159-4.196,9.355-9.355,9.355s-9.355-4.196-9.355-9.355
	V159.464z M336.133,188.696c19.563,0,35.479-15.915,35.479-35.478c0-4.406-0.811-8.725-2.41-12.84
	c-1.202-3.094-4.18-5.132-7.5-5.132h-51.14c-3.321,0-6.299,2.039-7.501,5.134c-1.598,4.114-2.408,8.434-2.408,12.838
	C300.652,172.78,316.569,188.696,336.133,188.696z M316.838,151.339h9.552c-0.117,0.608-0.183,1.236-0.183,1.879
	c0,5.479,4.445,9.922,9.926,9.922c5.48,0,9.924-4.443,9.924-9.922c0-0.644-0.065-1.27-0.183-1.879h9.553
	c0.061,0.622,0.091,1.249,0.091,1.878c0,10.688-8.695,19.383-19.384,19.383c-10.689,0-19.385-8.695-19.385-19.383
	C316.747,152.588,316.777,151.961,316.838,151.339z"/>
<g>
</g>
<g>
</g>
<g>
</g>
<g>
</g>
<g>
</g>
<g>
</g>
<g>
</g>
<g>
</g>
<g>
</g>
<g>
</g>
<g>
</g>
<g>
</g>
<g>
</g>
<g>
</g>
<g>
</g>
</svg>
