<?xml version="1.0" encoding="iso-8859-1"?>
<!-- Generator: Adobe Illustrator 19.0.0, SVG Export Plug-In . SVG Version: 6.00 Build 0)  -->
<svg version="1.1" id="Layer_1" xmlns="http://www.w3.org/2000/svg" xmlns:xlink="http://www.w3.org/1999/xlink" x="0px" y="0px"
	 viewBox="0 0 480 480" style="enable-background:new 0 0 480 480;" xml:space="preserve">
<g>
	<path style="fill:#AD3C2B;" d="M312,472L312,472c-8.84,0-16-7.16-16-16v-16h32v16C328,464.84,320.84,472,312,472z"/>
	<path style="fill:#AD3C2B;" d="M440,472L440,472c-8.84,0-16-7.16-16-16v-16h32v16C456,464.84,448.84,472,440,472z"/>
</g>
<path style="fill:#FCB641;" d="M456,440H296c-8.84,0-16-7.16-16-16V264c0-26.512,21.488-48,48-48h96c26.512,0,48,21.488,48,48v160
	C472,432.84,464.84,440,456,440z"/>
<path style="fill:#FDC567;" d="M424,216h-96c-25.584,0-46.432,20.032-47.864,45.264C288.752,248.44,303.392,240,320,240h96
	c26.512,0,48,21.488,48,48v149.784c4.76-2.768,8-7.872,8-13.784V264C472,237.488,450.512,216,424,216z"/>
<path style="fill:#E65039;" d="M432,216H328v-16c0-8.84,7.16-16,16-16h72c8.84,0,16,7.16,16,16V216z"/>
<g>
	<path style="fill:#1C77C3;" d="M56,472L56,472c-8.84,0-16-7.16-16-16v-16h32v16C72,464.84,64.84,472,56,472z"/>
	<path style="fill:#1C77C3;" d="M192,472L192,472c-8.84,0-16-7.16-16-16v-16h32v16C208,464.84,200.84,472,192,472z"/>
</g>
<path style="fill:#E65039;" d="M208,440H40c-17.672,0-32-14.328-32-32V184c0-17.672,14.328-32,32-32h168c17.672,0,32,14.328,32,32
	v224C240,425.672,225.672,440,208,440z"/>
<path style="fill:#EB7361;" d="M208,152H40c-17.672,0-32,14.328-32,32v3.04C13.864,180.328,22.384,176,32,176h168
	c17.672,0,32,14.328,32,32v220.96c4.92-5.624,8-12.904,8-20.96V184C240,166.328,225.672,152,208,152z"/>
<g>
	<rect x="72" y="64" style="fill:#1C77C3;" width="24" height="88"/>
	<rect x="160" y="64" style="fill:#1C77C3;" width="24" height="88"/>
</g>
<path style="fill:#4992CF;" d="M208,64H48V48c0-8.84,7.16-16,16-16h128c8.84,0,16,7.16,16,16V64z"/>
<path style="fill:#E65039;" d="M152,32h-48v-8c0-8.84,7.16-16,16-16h16c8.84,0,16,7.16,16,16V32z"/>
<polygon style="fill:#FCB641;" points="88,272 40,272 40,200 56,184 72,184 88,200 "/>
<path style="fill:#1C77C3;" d="M136,408H88v-32c0-8.84,7.16-16,16-16h32V408z"/>
<path style="fill:#FCB641;" d="M152,408h-16v-48h32v32C168,400.84,160.84,408,152,408z"/>
<path d="M440,210.36V200c0-13.232-10.768-24-24-24h-72c-13.232,0-24,10.768-24,24v8.64c-27.096,3.904-48,27.208-48,55.36v160
	c0,10.416,6.712,19.216,16,22.528V456c0,13.232,10.768,24,24,24s24-10.768,24-24v-8h80v8c0,13.232,10.768,24,24,24s24-10.768,24-24
	v-9.472c9.288-3.312,16-12.112,16-22.528V264C480,238.688,463.104,217.264,440,210.36z M336,200c0-4.416,3.592-8,8-8h72
	c4.408,0,8,3.584,8,8v8h-88V200z M320,456c0,4.416-3.592,8-8,8s-8-3.584-8-8v-8h16V456z M448,456c0,4.416-3.592,8-8,8s-8-3.584-8-8
	v-8h16V456z M464,424c0,4.416-3.592,8-8,8h-32h-96h-32c-4.408,0-8-3.584-8-8V264c0-22.056,17.944-40,40-40h96
	c22.056,0,40,17.944,40,40V424z"/>
<path d="M320,256c-4.416,0-8,3.576-8,8v136c0,4.424,3.584,8,8,8s8-3.576,8-8V264C328,259.576,324.416,256,320,256z"/>
<path d="M376,256c-4.416,0-8,3.576-8,8v136c0,4.424,3.584,8,8,8s8-3.576,8-8V264C384,259.576,380.416,256,376,256z"/>
<path d="M432,256c-4.416,0-8,3.576-8,8v136c0,4.424,3.584,8,8,8s8-3.576,8-8V264C440,259.576,436.416,256,432,256z"/>
<path d="M256,176h-8.808c-3.72-18.232-19.872-32-39.192-32h-16V72h16c4.416,0,8-3.576,8-8V48c0-13.232-10.768-24-24-24h-32
	c0-13.232-10.768-24-24-24h-16c-13.232,0-24,10.768-24,24H64c-13.232,0-24,10.768-24,24v16c0,4.424,3.584,8,8,8h16v72H40
	c-22.056,0-40,17.944-40,40v224c0,19.312,13.768,35.472,32,39.192V456c0,13.232,10.768,24,24,24s24-10.768,24-24v-8h88v8
	c0,13.232,10.768,24,24,24s24-10.768,24-24v-8.808c18.232-3.72,32-19.872,32-39.192V192h8c4.416,0,8-3.576,8-8S260.416,176,256,176z
	 M176,144h-8V72h8V144z M104,144V72h48v72H104z M120,16h16c4.408,0,8,3.584,8,8h-32C112,19.584,115.592,16,120,16z M56,48
	c0-4.416,3.592-8,8-8h40h48h40c4.408,0,8,3.584,8,8v8h-16h-24H96H72H56V48z M80,72h8v72h-8V72z M64,456c0,4.416-3.592,8-8,8
	s-8-3.584-8-8v-8h16V456z M200,456c0,4.416-3.592,8-8,8s-8-3.584-8-8v-8h16V456z M232,408c0,13.232-10.768,24-24,24h-32H72H40
	c-13.232,0-24-10.768-24-24V184c0-13.232,10.768-24,24-24h16v16c-2.12,0-4.16,0.84-5.656,2.344l-16,16
	C32.84,195.84,32,197.872,32,200v72c0,4.424,3.584,8,8,8h48c4.416,0,8-3.576,8-8v-72c0-2.128-0.84-4.16-2.344-5.656l-16-16
	C76.16,176.84,74.12,176,72,176v-16h24h64h24h24c13.232,0,24,10.768,24,24V408z M64,208c4.416,0,8-3.576,8-8v-4.688l8,8V264H48
	v-60.688l8-8V200C56,204.424,59.584,208,64,208z"/>
<path d="M208,192h-56c-4.416,0-8,3.576-8,8s3.584,8,8,8h56c4.416,0,8-3.576,8-8S212.416,192,208,192z"/>
<path d="M136,240h24c4.416,0,8-3.576,8-8s-3.584-8-8-8h-24c-4.416,0-8,3.576-8,8S131.584,240,136,240z"/>
<path d="M208,224h-16c-4.416,0-8,3.576-8,8s3.584,8,8,8h16c4.416,0,8-3.576,8-8S212.416,224,208,224z"/>
<path d="M168,352h-32h-32c-13.232,0-24,10.768-24,24v32c0,4.424,3.584,8,8,8h48h16c13.232,0,24-10.768,24-24v-32
	C176,355.576,172.416,352,168,352z M96,376c0-4.416,3.592-8,8-8h24v32H96V376z M160,392c0,4.416-3.592,8-8,8h-8v-32h16V392z"/>
<g>
</g>
<g>
</g>
<g>
</g>
<g>
</g>
<g>
</g>
<g>
</g>
<g>
</g>
<g>
</g>
<g>
</g>
<g>
</g>
<g>
</g>
<g>
</g>
<g>
</g>
<g>
</g>
<g>
</g>
</svg>
